<svg width="256" height="64" viewBox="0 0 256 64" fill="none" xmlns="http://www.w3.org/2000/svg">
<path d="M256 47.9163V11.3281H248.404V25.2093C246.569 22.4674 243.71 20.8822 240.04 20.8822C233.212 20.8822 227.793 27.0516 227.793 34.6349C227.793 42.261 233.212 48.4304 240.04 48.4304C243.753 48.4304 246.612 46.8452 248.404 44.1032V47.8734H256V47.9163ZM248.447 34.6349C248.447 38.3622 245.545 41.147 241.832 41.147C238.162 41.147 235.218 38.2765 235.218 34.6349C235.218 31.036 238.162 28.1227 241.832 28.1227C245.545 28.1227 248.447 30.9503 248.447 34.6349ZM224.507 27.7371C225.403 27.7371 226.342 27.9085 227.238 28.1227V21.2249C226.384 21.0536 225.531 20.8822 224.72 20.8822C221.776 20.8822 219.471 22.1675 217.892 24.4382V21.3963H210.296V47.8734H217.892V34.8062C217.892 29.9649 220.879 27.7371 224.507 27.7371ZM207.011 14.5842C207.011 12.0993 204.919 10 202.402 10C199.884 10 197.793 12.0993 197.793 14.5842C197.793 17.112 199.884 19.2113 202.402 19.2113C204.919 19.2113 207.011 17.112 207.011 14.5842ZM195.873 34.6349C195.873 27.0088 190.453 20.8822 183.625 20.8822C179.955 20.8822 177.139 22.3817 175.304 25.1237V11.3281H167.708V47.9163H175.304V44.1889C177.139 46.9309 179.998 48.4304 183.625 48.4304C190.453 48.4732 195.873 42.261 195.873 34.6349ZM188.447 34.6349C188.447 38.3194 185.546 41.147 181.876 41.147C178.163 41.147 175.261 38.3622 175.261 34.6349C175.261 30.9503 178.163 28.1227 181.876 28.1227C185.546 28.1227 188.447 31.036 188.447 34.6349ZM156.015 47.9163H163.611V11.3281H156.015V25.2093C154.18 22.4674 151.321 20.8822 147.651 20.8822C140.823 20.8822 135.404 27.0516 135.404 34.6349C135.404 42.261 140.823 48.4304 147.651 48.4304C151.364 48.4304 154.223 46.8452 156.015 44.1032V47.9163ZM156.015 34.6349C156.015 38.3622 153.114 41.147 149.401 41.147C145.731 41.147 142.786 38.2765 142.786 34.6349C142.786 31.036 145.731 28.1227 149.401 28.1227C153.114 28.1227 156.015 30.9503 156.015 34.6349ZM124.992 47.9163H132.587V32.9211C132.587 25.4236 128.491 20.8822 121.748 20.8822C118.718 20.8822 116.286 22.3389 114.579 24.8666V21.3963H106.983V47.8734H114.579V33.8637C114.579 30.3934 116.627 28.1227 119.785 28.1227C122.9 28.1227 124.992 30.3934 124.992 33.8637V47.9163ZM104.081 36.4771C104.209 35.6203 104.252 34.3778 104.252 33.778C104.252 26.4946 98.4057 20.8822 91.2365 20.8822C83.5553 20.8822 77.5383 26.8374 77.5383 34.5492C77.5383 42.3895 83.5979 48.4732 91.4072 48.4732C98.0217 48.4732 103.015 44.7459 103.868 39.0477H96.4427C96.016 40.89 94.1384 42.1753 91.1939 42.1753C87.6519 42.1753 85.0062 39.9474 84.4941 36.52C84.4941 36.4771 104.081 36.4771 104.081 36.4771ZM96.3574 31.6358H84.8355C85.7316 28.5083 87.9933 27.0516 90.8951 27.0516C93.7116 27.0088 96.144 28.9367 96.3574 31.6358ZM59.914 29.0224C59.914 27.7799 61.1942 27.1801 62.9438 27.1801C65.3762 27.1801 66.8271 28.3797 66.9125 29.7079H74.5084C73.8683 23.8384 68.7475 20.8393 63.0718 20.8393C56.5854 20.8393 52.5741 24.6095 52.5741 29.5365C52.5741 39.4333 67.4246 35.5346 67.4246 39.9046C67.4246 41.147 66.1444 41.9182 63.8827 41.9182C61.3649 41.9182 59.4872 40.7186 59.3166 38.962H52.062C52.6168 44.9601 57.3962 48.4732 64.2667 48.4732C70.241 48.4732 74.8071 44.7459 74.8071 39.9046C74.8071 28.8082 59.914 33.1353 59.914 29.0224ZM43.7833 32.0214C43.7833 19.8539 33.9683 10.0428 21.8916 10.0428H0V21.0536C0 27.0516 4.77947 31.9357 10.7111 32.0214H0C0 44.1889 9.81497 54 21.8916 54C33.9683 54 43.7833 44.1461 43.7833 32.0214ZM198.604 47.9163H206.2V21.4391H198.604V47.9163Z" fill="white"/>
</svg>
