<svg width="256" height="64" viewBox="0 0 256 64" fill="none" xmlns="http://www.w3.org/2000/svg">
<g clip-path="url(#clip0_2_22)">
<path d="M29.376 7.776H35.76V52.368H29.376V7.776ZM22.416 23.808H30.672V28.944H22.416V23.808ZM0.0960002 36.816H3.744C10.944 36.816 16.656 36.672 23.088 35.568L23.664 40.752C17.088 41.856 11.136 42.096 3.744 42.096H0.0960002V36.816ZM0 11.568H20.016V28.272H6.432V38.4H0.0960002V23.232H13.728V16.656H0V11.568Z" fill="white"/>
<path d="M73.6763 7.824H80.0602V52.416H73.6763V7.824ZM61.7243 21.552H75.5003V26.688H61.7243V21.552ZM45.0202 12.576H51.3563V40.176H45.0202V12.576ZM45.0202 36.672H48.7643C55.1003 36.672 61.6762 36.24 68.5882 34.848L69.2603 40.128C62.1083 41.568 55.2923 41.952 48.7643 41.952H45.0202V36.672Z" fill="white"/>
<path d="M103.384 10.368H108.952V13.584C108.952 23.232 102.089 31.776 90.5685 34.032L87.8325 28.752C97.8645 27.024 103.384 19.968 103.384 13.584V10.368ZM104.68 10.368H110.201V13.584C110.201 20.112 115.673 27.024 125.753 28.752L123.017 34.032C111.497 31.776 104.68 23.376 104.68 13.584V10.368ZM86.9205 41.664H127.145V46.848H86.9205V41.664Z" fill="white"/>
<path d="M154.117 18.912H162.661V24.048H154.117V18.912ZM147.733 9.984H154.405C154.405 22.224 148.645 30.336 134.197 34.704L131.701 29.712C143.797 26.208 147.733 20.352 147.733 12.72V9.984ZM134.005 9.984H151.861V15.024H134.005V9.984ZM148.501 18.144V22.512L132.661 23.712L131.749 18.72L148.501 18.144ZM161.845 7.824H168.229V33.168H161.845V7.824ZM138.949 35.184H168.229V51.792H138.949V35.184ZM161.941 40.176H145.237V46.752H161.941V40.176Z" fill="white"/>
<path d="M176.193 11.712H200.769V16.8H176.193V11.712ZM175.617 42.24L174.993 37.008C182.673 37.008 193.089 36.912 201.825 35.856L202.257 40.464C193.329 42.048 183.201 42.24 175.617 42.24ZM179.889 15.888H186.081V38.304H179.889V15.888ZM190.401 15.888H196.593V38.304H190.401V15.888ZM206.145 7.824H212.481V52.272H206.145V7.824ZM199.521 23.952H210.849V29.088H199.521V23.952Z" fill="white"/>
<path d="M250.109 7.824H256.493V52.272H250.109V7.824ZM221.693 12.048H228.029V39.648H221.693V12.048ZM221.693 35.904H225.629C232.109 35.904 239.309 35.424 246.653 33.984L247.373 39.264C239.741 40.848 232.397 41.328 225.629 41.328H221.693V35.904Z" fill="white"/>
</g>
<defs>
<clipPath id="clip0_2_22">
<rect width="256" height="64" fill="white"/>
</clipPath>
</defs>
</svg>
