<svg width="313" height="64" viewBox="0 0 313 64" fill="none" xmlns="http://www.w3.org/2000/svg">
<g clip-path="url(#clip0_2_28)">
<g clip-path="url(#clip1_2_28)">
<path d="M0.000198739 31.8771C-0.0924322 14.4757 14.358 -0.12294 32.3593 0.000255269C49.4342 0.123451 64.1626 13.6749 64.1935 32.0003C64.1935 50.264 49.3107 64.0927 31.7726 63.9695C14.358 63.8463 -0.0924322 49.648 0.000198739 31.8771ZM61.2601 32.0619C61.2601 30.2139 61.1366 28.3968 60.7661 26.5797C59.2531 19.0647 55.4553 12.9666 49.249 8.40834C45.0188 5.29766 40.4182 3.57292 35.0456 4.28129C28.2835 5.17446 22.2625 10.5335 20.7495 17.1244C19.8541 21.0667 21.8302 24.7933 25.412 26.0253C25.9369 26.2101 26.3383 26.2101 26.8014 25.8097C29.5186 23.5922 32.4828 23.1918 35.6631 24.6701C37.8554 25.6865 39.7389 27.1032 41.3445 28.8896C45.7908 33.7558 47.5508 39.4536 46.5318 45.9213C45.7908 50.6336 43.5059 54.5758 39.9241 57.7481C39.461 58.1485 38.9978 58.5797 39.3992 59.288C39.8315 59.9964 40.449 59.8424 41.0975 59.6576C41.1901 59.6576 41.3136 59.596 41.4062 59.5652C48.0757 57.2553 53.2939 53.1591 56.9991 47.1841C59.8707 42.5335 61.291 37.4824 61.2601 32.0619ZM2.87176 31.9387C2.81 33.1398 2.93351 34.3102 3.0879 35.4805C4.38473 44.5354 8.76926 51.6191 16.5194 56.6393C20.2864 59.0724 24.3313 60.2428 28.8393 59.7192C35.941 58.8568 41.9929 53.467 43.5059 46.5065C44.3087 42.8722 42.209 39.084 38.7817 37.9752C38.2259 37.7904 37.8245 37.852 37.3305 38.2216C34.4589 40.4391 31.4021 40.8087 28.1291 39.1456C25.6898 37.8828 23.5593 36.1889 21.8611 34.033C18.2794 29.5055 16.7355 24.3621 17.5075 18.6028C18.1867 13.6133 20.5025 9.4555 24.3004 6.12922C24.7635 5.72884 25.0414 5.29766 24.7635 4.68168C24.4548 4.0349 23.899 4.0965 23.3432 4.2197C23.1579 4.2505 23.0036 4.31209 22.8183 4.37369C17.9088 6.06763 13.6478 8.77793 10.2205 12.6894C5.37279 18.2024 2.99527 24.6393 2.90264 31.9387H2.87176ZM26.8014 31.9387C26.8014 34.8953 29.1481 37.2361 32.0505 37.2361C34.9221 37.2361 37.3614 34.8029 37.3614 32.0311C37.3614 29.1052 34.9529 26.6721 32.0196 26.7029C29.1172 26.7029 26.8014 29.0436 26.8014 31.9387Z" fill="white"/>
<path d="M94.4218 48.3542C90.5004 48.3542 86.5481 48.3542 82.6268 48.3542C81.2373 48.3542 80.9285 48.0462 80.8977 46.7219C80.8977 45.7055 80.8977 44.6583 80.8977 43.642C80.9285 42.4408 81.2373 42.1636 82.4415 42.1636C89.605 42.1636 96.7684 42.1636 103.932 42.1636C104.272 42.1636 104.611 42.1636 104.951 42.1636C106.062 42.1328 106.742 41.5784 106.896 40.4697C107.05 39.4533 107.05 38.4062 106.896 37.4206C106.711 36.281 106.093 35.7883 104.951 35.7575C104.611 35.7575 104.272 35.7575 103.932 35.7575C98.7754 35.7575 93.619 35.7575 88.4625 35.7575C86.7025 35.7575 84.9734 35.4495 83.5222 34.3715C81.6696 33.0164 81.0212 31.076 80.8977 28.9509C80.805 27.2878 80.7433 25.5938 80.9594 23.8999C81.4226 20.4504 83.7692 18.2945 87.2583 18.0173C88.4316 17.9249 89.6358 17.8941 90.8092 17.8941C97.386 17.8941 103.963 17.8941 110.54 17.8941C110.91 17.8941 111.281 17.8941 111.651 17.9557C112.269 18.0173 112.608 18.3561 112.608 19.0029C112.608 20.358 112.608 21.6824 112.608 23.0375C112.608 23.7767 112.238 24.0847 111.528 24.0847C111.25 24.0847 111.003 24.0847 110.725 24.0847C103.932 24.0847 97.139 24.0847 90.346 24.0847C89.9446 24.0847 89.5432 24.0847 89.1727 24.1771C88.2773 24.3927 87.7523 24.9779 87.6906 25.9018C87.6597 26.5794 87.6597 27.257 87.6906 27.9654C87.6906 29.5977 88.3081 30.2137 89.9446 30.2137C95.1319 30.2137 100.288 30.2137 105.476 30.2137C106.402 30.2137 107.328 30.2753 108.224 30.4601C111.651 31.1684 113.627 33.5091 113.689 37.0202C113.689 38.5602 113.689 40.0693 113.689 41.6092C113.658 45.3359 111.342 47.8306 107.606 48.2618C106.773 48.3542 105.939 48.385 105.074 48.385C101.493 48.385 97.9417 48.385 94.36 48.385L94.4218 48.3542Z" fill="white"/>
<path d="M299.322 48.3542C298.55 48.3542 297.778 48.3234 297.037 48.3542C296.203 48.4158 295.709 48.0462 295.338 47.3378C294.566 45.8595 293.733 44.4427 292.961 42.9644C292.683 42.41 292.312 42.1636 291.664 42.1944C285.458 42.1944 279.252 42.1944 273.045 42.1944C272.459 42.1944 272.119 42.3792 271.841 42.872C271.1 44.3503 270.266 45.7979 269.525 47.2762C269.155 48.0154 268.63 48.385 267.765 48.3542C266.16 48.3234 264.554 48.3542 262.948 48.3542C261.775 48.3542 261.559 47.9538 262.084 46.9682C266.777 38.4062 271.44 29.8441 276.133 21.282C276.38 20.82 276.689 20.3888 276.997 19.9577C277.831 18.7257 278.974 17.9865 280.487 17.9557C281.567 17.9249 282.648 17.9249 283.729 17.9557C285.859 18.0173 287.218 19.2493 288.206 21.0048C289.256 22.9143 290.336 24.8239 291.386 26.7334C295.091 33.4476 298.797 40.1309 302.471 46.845C303.119 48.0154 302.903 48.385 301.545 48.385C300.804 48.385 300.063 48.385 299.322 48.385V48.3542ZM282.308 36.9894C284.501 36.9894 286.693 36.9894 288.885 36.9894C289.472 36.9894 289.595 36.8046 289.287 36.3118C288.947 35.7575 288.638 35.1723 288.329 34.5871C286.569 31.3532 284.809 28.1193 283.049 24.8855C282.895 24.5775 282.741 24.2695 282.308 24.2387C281.876 24.2387 281.722 24.5159 281.567 24.8239C279.529 28.6121 277.522 32.3696 275.485 36.1578C275.083 36.9278 275.114 36.9894 275.948 36.9894C278.047 36.9894 280.178 36.9894 282.277 36.9894H282.308Z" fill="white"/>
<path d="M145.708 48.3542C143.362 48.2618 140.49 48.4774 137.588 48.231C136.569 48.1386 135.55 47.9538 134.562 47.6766C131.937 46.8758 130.363 45.1203 129.992 42.4716C129.467 38.591 129.467 34.7103 129.93 30.8296C130.394 27.0106 132.74 25.0703 136.785 24.6391C137.958 24.5159 139.101 24.4851 140.274 24.4851C144.69 24.4851 149.105 24.4851 153.52 24.4851C154.817 24.4851 156.114 24.6391 157.349 24.9779C160.776 25.871 162.506 28.027 162.691 31.538C162.876 34.8027 162.876 38.0366 162.691 41.3013C162.475 45.1203 160.282 47.461 156.33 48.0462C155.002 48.2618 153.644 48.3542 152.316 48.3542C150.278 48.3542 148.24 48.3542 145.708 48.3542ZM146.326 29.7209C144.103 29.7209 141.88 29.6901 139.657 29.7209C137.433 29.7825 136.445 30.6449 136.198 32.8008C135.92 35.0183 135.982 37.2666 136.137 39.4841C136.322 42.0096 137.279 42.9644 139.626 42.9952C144.072 43.0876 148.487 43.0876 152.934 42.9952C155.126 42.9644 156.176 42.0712 156.361 39.9461C156.608 37.359 156.639 34.7411 156.268 32.154C156.083 30.922 155.28 30.1521 154.045 29.8749C153.489 29.7517 152.903 29.6901 152.316 29.6901C150.309 29.6901 148.302 29.6901 146.295 29.6901L146.326 29.7209Z" fill="white"/>
<path d="M184.274 24.4543C186.744 24.4543 189.245 24.4543 191.715 24.4543C192.919 24.4543 194.124 24.6083 195.328 24.9163C198.693 25.717 200.577 27.9653 200.762 31.4148C201.04 36.589 200.824 41.7632 200.886 46.9374C200.886 48.0154 200.546 48.2926 199.496 48.3234C198.323 48.3234 197.119 48.3234 195.945 48.3234C194.865 48.3234 194.556 48.0154 194.556 46.8758C194.556 42.7796 194.556 38.6833 194.556 34.5563C194.556 33.8479 194.556 33.1396 194.371 32.4312C194.062 31.076 193.414 30.3985 192.055 30.1829C191.376 30.0597 190.696 29.9981 190.017 29.9981C186.281 29.9981 182.514 29.9981 178.778 29.9981C177.944 29.9981 177.08 30.0905 176.277 30.3061C175.165 30.5833 174.517 31.3224 174.27 32.4004C174.115 33.1088 174.023 33.7863 174.023 34.4947C174.023 38.5294 174.023 42.5948 174.023 46.6295C174.023 48.0154 173.807 48.2618 172.417 48.2618C171.275 48.2618 170.132 48.2618 169.021 48.2618C168.002 48.2618 167.662 47.923 167.662 46.9374C167.662 42.1636 167.662 37.4206 167.662 32.6468C167.662 31.846 167.786 31.0144 167.94 30.2137C168.403 27.4726 170.009 25.717 172.664 24.9471C173.992 24.5467 175.35 24.3619 176.74 24.3619C179.272 24.3619 181.804 24.3619 184.336 24.3619L184.274 24.4543Z" fill="white"/>
<path d="M235.036 48.3542C232.195 48.3542 229.323 48.3542 226.483 48.3542C224.939 48.3542 223.364 48.1694 221.851 47.769C218.949 46.999 217.25 45.0895 216.911 42.1636C216.479 38.591 216.509 34.9567 216.849 31.384C217.25 27.1338 219.381 25.1935 223.704 24.6699C224.599 24.5467 225.495 24.4851 226.39 24.4851C232.257 24.4851 238.123 24.4851 243.99 24.4851C245.225 24.4851 245.441 24.6699 245.441 25.9018C245.441 26.795 245.441 27.6882 245.441 28.5813C245.441 29.5669 245.194 29.7825 244.206 29.7825C238.895 29.7825 233.584 29.7825 228.274 29.7825C227.471 29.7825 226.699 29.8441 225.896 29.9673C224.26 30.1829 223.364 30.9836 223.21 32.77C222.963 35.2031 222.932 37.667 223.21 40.1001C223.426 42.0712 224.507 42.9336 226.544 42.9644C228.644 43.026 230.775 42.9644 232.874 42.9952C236.549 42.9952 240.223 42.9952 243.897 42.9952C245.194 42.9952 245.441 43.2416 245.441 44.5043C245.441 45.3359 245.441 46.1983 245.441 47.0298C245.441 48.1078 245.163 48.385 244.083 48.385C241.057 48.385 238.062 48.385 235.036 48.385V48.3542Z" fill="white"/>
<path d="M313 33.078C313 37.667 313 42.2868 313 46.8758C313 48.077 312.753 48.3234 311.58 48.3234C310.283 48.3234 308.986 48.3234 307.689 48.3234C306.547 48.3234 306.269 48.0154 306.269 46.9374C306.269 37.6978 306.269 28.4889 306.269 19.2493C306.269 18.2021 306.547 17.8941 307.627 17.8633C308.986 17.8633 310.314 17.8633 311.672 17.8633C312.753 17.8633 313 18.1713 313 19.2801C313 23.8691 313 28.4889 313 33.078Z" fill="white"/>
<path d="M124.805 36.4042C124.805 39.8537 124.805 43.3032 124.805 46.7218C124.805 48.077 124.527 48.3234 123.168 48.3234C122.149 48.3234 121.1 48.3234 120.081 48.3234C118.691 48.3234 118.444 48.077 118.444 46.6602C118.444 40.6237 118.444 34.5563 118.444 28.5197C118.444 27.5958 118.444 26.6718 118.444 25.7478C118.444 24.7315 118.784 24.4543 119.803 24.4235C120.976 24.4235 122.18 24.4235 123.354 24.4235C124.496 24.4235 124.805 24.7007 124.805 25.871C124.805 29.3513 124.805 32.8624 124.805 36.3426V36.4042Z" fill="white"/>
<path d="M206.104 36.4042C206.104 32.924 206.104 29.4129 206.104 25.9326C206.104 24.7315 206.351 24.4543 207.617 24.4543C208.821 24.4543 210.056 24.4543 211.26 24.4543C212.032 24.4543 212.372 24.8239 212.434 25.5322C212.434 25.8094 212.434 26.1174 212.434 26.3946C212.434 33.078 212.434 39.7305 212.434 46.4139C212.434 46.7218 212.434 47.0298 212.403 47.3686C212.341 47.9846 211.97 48.3234 211.353 48.3234C209.963 48.3234 208.543 48.3542 207.154 48.3234C206.351 48.3234 206.073 47.923 206.073 46.9682C206.073 43.4572 206.073 39.9153 206.073 36.4042H206.104Z" fill="white"/>
<path d="M121.563 21.8364C120.914 21.8364 120.235 21.8364 119.587 21.8364C118.845 21.8364 118.444 21.4668 118.444 20.7276C118.444 19.4033 118.444 18.1097 118.444 16.7854C118.444 16.0462 118.845 15.6458 119.587 15.6458C120.945 15.6458 122.335 15.6458 123.693 15.6458C124.434 15.6458 124.805 16.077 124.805 16.8162C124.805 18.1097 124.805 19.4033 124.805 20.666C124.805 21.5284 124.434 21.8056 123.57 21.8364C122.921 21.8364 122.242 21.8364 121.594 21.8364H121.563Z" fill="white"/>
<path d="M209.223 21.8364C208.512 21.8364 207.802 21.8364 207.092 21.8364C206.475 21.8364 206.104 21.4668 206.104 20.8508C206.104 19.4649 206.104 18.0789 206.104 16.6622C206.104 16.0154 206.505 15.6766 207.092 15.6766C208.543 15.6458 209.995 15.6766 211.446 15.6766C212.032 15.6766 212.372 16.0462 212.403 16.6314C212.496 18.0481 212.496 19.4649 212.403 20.8816C212.372 21.5284 211.971 21.8672 211.291 21.8364C210.612 21.8364 209.933 21.8364 209.223 21.8364Z" fill="white"/>
</g>
</g>
<defs>
<clipPath id="clip0_2_28">
<rect width="313" height="64" fill="white"/>
</clipPath>
<clipPath id="clip1_2_28">
<rect width="313" height="64" fill="white"/>
</clipPath>
</defs>
</svg>
