<svg width="256" height="64" viewBox="0 0 256 64" fill="none" xmlns="http://www.w3.org/2000/svg">
<path d="M58.816 32.832H65.2V42.96H58.816V32.832ZM62.032 10.08C71.536 10.08 78.64 14.928 78.64 22.32C78.64 29.808 71.536 34.608 62.032 34.608C52.528 34.608 45.424 29.808 45.424 22.32C45.424 14.928 52.528 10.08 62.032 10.08ZM62.032 15.12C55.936 15.12 51.712 17.808 51.712 22.32C51.712 26.928 55.936 29.568 62.032 29.568C68.128 29.568 72.352 26.928 72.352 22.32C72.352 17.808 68.128 15.12 62.032 15.12ZM41.968 41.952H82.192V47.136H41.968V41.952Z" fill="white"/>
<path d="M91.0683 16.704H121.74V21.744H91.0683V16.704ZM86.0763 24.624H126.348V29.664H86.0763V24.624ZM91.0683 8.304H97.4043V19.392H91.0683V8.304ZM90.6363 32.352H121.596V44.16H97.0683V48.096H90.6843V39.648H115.212V37.152H90.6363V32.352ZM90.6843 46.944H122.892V51.792H90.6843V46.944Z" fill="white"/>
<path d="M144.537 10.752C151.545 10.752 156.777 15.312 156.777 21.696C156.777 28.128 151.545 32.688 144.537 32.688C137.577 32.688 132.249 28.128 132.249 21.696C132.249 15.312 137.577 10.752 144.537 10.752ZM144.537 16.224C141.129 16.224 138.537 18.24 138.537 21.696C138.537 25.2 141.129 27.216 144.537 27.216C147.945 27.216 150.537 25.2 150.537 21.696C150.537 18.24 147.945 16.224 144.537 16.224ZM160.953 7.776H167.337V52.368H160.953V7.776ZM131.193 43.344L130.425 38.208C138.249 38.208 149.145 38.112 158.505 36.72L158.985 41.328C149.337 43.248 138.873 43.344 131.193 43.344Z" fill="white"/>
<path d="M194.741 9.264H207.029V14.352H194.741V9.264ZM174.485 25.68H214.517V30.768H174.485V25.68ZM192.101 19.392H198.389V29.04H192.101V19.392ZM204.485 9.264H210.677V11.808C210.677 14.64 210.677 18.72 209.333 23.76L203.141 23.088C204.485 17.952 204.485 14.592 204.485 11.808V9.264ZM177.653 9.264H188.261V14.352H177.653V9.264ZM185.237 9.264H191.429V11.616C191.429 14.496 191.429 18.72 189.125 23.904L182.933 22.944C185.237 17.472 185.237 14.256 185.237 11.616V9.264ZM191.237 38.352H196.661V39.216C196.661 45.696 190.709 50.976 179.717 52.128L177.605 47.328C186.965 46.464 191.237 42.672 191.237 39.216V38.352ZM192.341 38.352H197.717V39.216C197.717 42.672 201.989 46.464 211.397 47.328L209.285 52.128C198.293 50.976 192.341 45.744 192.341 39.216V38.352ZM179.381 35.712H209.573V40.608H179.381V35.712ZM191.237 32.112H197.717V37.632H191.237V32.112Z" fill="white"/>
</svg>
