<svg width="173" height="64" viewBox="0 0 173 64" fill="none" xmlns="http://www.w3.org/2000/svg">
<g clip-path="url(#clip0_2_17)">
<path d="M16.848 32.832H23.232V42.96H16.848V32.832ZM20.064 10.08C29.568 10.08 36.672 14.928 36.672 22.32C36.672 29.808 29.568 34.608 20.064 34.608C10.56 34.608 3.456 29.808 3.456 22.32C3.456 14.928 10.56 10.08 20.064 10.08ZM20.064 15.12C13.968 15.12 9.744 17.808 9.744 22.32C9.744 26.928 13.968 29.568 20.064 29.568C26.16 29.568 30.384 26.928 30.384 22.32C30.384 17.808 26.16 15.12 20.064 15.12ZM0 41.952H40.224V47.136H0V41.952Z" fill="white"/>
<path d="M49.1003 16.704H79.7722V21.744H49.1003V16.704ZM44.1083 24.624H84.3802V29.664H44.1083V24.624ZM49.1003 8.304H55.4363V19.392H49.1003V8.304ZM48.6683 32.352H79.6283V44.16H55.1003V48.096H48.7163V39.648H73.2442V37.152H48.6683V32.352ZM48.7163 46.944H80.9242V51.792H48.7163V46.944Z" fill="white"/>
<path d="M102.568 10.752C109.576 10.752 114.809 15.312 114.809 21.696C114.809 28.128 109.576 32.688 102.568 32.688C95.6085 32.688 90.2805 28.128 90.2805 21.696C90.2805 15.312 95.6085 10.752 102.568 10.752ZM102.568 16.224C99.1605 16.224 96.5685 18.24 96.5685 21.696C96.5685 25.2 99.1605 27.216 102.568 27.216C105.976 27.216 108.568 25.2 108.568 21.696C108.568 18.24 105.976 16.224 102.568 16.224ZM118.984 7.776H125.368V52.368H118.984V7.776ZM89.2245 43.344L88.4565 38.208C96.2805 38.208 107.176 38.112 116.536 36.72L117.017 41.328C107.368 43.248 96.9045 43.344 89.2245 43.344Z" fill="white"/>
<path d="M152.773 9.264H165.061V14.352H152.773V9.264ZM132.517 25.68H172.549V30.768H132.517V25.68ZM150.133 19.392H156.421V29.04H150.133V19.392ZM162.517 9.264H168.709V11.808C168.709 14.64 168.709 18.72 167.365 23.76L161.173 23.088C162.517 17.952 162.517 14.592 162.517 11.808V9.264ZM135.685 9.264H146.293V14.352H135.685V9.264ZM143.269 9.264H149.461V11.616C149.461 14.496 149.461 18.72 147.157 23.904L140.965 22.944C143.269 17.472 143.269 14.256 143.269 11.616V9.264ZM149.269 38.352H154.693V39.216C154.693 45.696 148.741 50.976 137.749 52.128L135.637 47.328C144.997 46.464 149.269 42.672 149.269 39.216V38.352ZM150.373 38.352H155.749V39.216C155.749 42.672 160.021 46.464 169.429 47.328L167.317 52.128C156.325 50.976 150.373 45.744 150.373 39.216V38.352ZM137.413 35.712H167.605V40.608H137.413V35.712ZM149.269 32.112H155.749V37.632H149.269V32.112Z" fill="white"/>
</g>
<defs>
<clipPath id="clip0_2_17">
<rect width="173" height="64" fill="white"/>
</clipPath>
</defs>
</svg>
