<svg width="215" height="64" viewBox="0 0 215 64" fill="none" xmlns="http://www.w3.org/2000/svg">
<g clip-path="url(#clip0_2_20)">
<path d="M0 37.056H3.744C11.232 37.056 16.944 36.96 23.568 35.904L24.144 40.992C17.424 42.048 11.376 42.24 3.744 42.24H0V37.056ZM0 11.52H20.88V16.704H6.432V38.736H0V11.52ZM4.896 23.856H20.256V28.848H4.896V23.856ZM26.688 7.82401H33.12V52.272H26.688V7.82401ZM31.68 24.672H39.552V29.952H31.68V24.672Z" fill="white"/>
<path d="M72.9563 7.872H79.3883V32.976H72.9563V7.872ZM49.8203 34.992H79.3883V51.792H49.8203V34.992ZM73.1003 39.984H56.0603V46.752H73.1003V39.984ZM55.1963 9.888C62.1082 9.888 67.2442 14.304 67.2442 20.544C67.2442 26.736 62.1082 31.2 55.1963 31.2C48.2842 31.2 43.1003 26.736 43.1003 20.544C43.1003 14.304 48.2842 9.888 55.1963 9.888ZM55.1963 15.168C51.8363 15.168 49.3403 17.136 49.3403 20.544C49.3403 23.904 51.8363 25.872 55.1963 25.872C58.5563 25.872 61.0043 23.904 61.0043 20.544C61.0043 17.136 58.5563 15.168 55.1963 15.168Z" fill="white"/>
<path d="M87.5925 11.712H112.168V16.8H87.5925V11.712ZM87.0165 42.24L86.3925 37.008C94.0725 37.008 104.488 36.912 113.224 35.856L113.657 40.464C104.729 42.048 94.6005 42.24 87.0165 42.24ZM91.2885 15.888H97.4805V38.304H91.2885V15.888ZM101.8 15.888H107.993V38.304H101.8V15.888ZM117.545 7.82401H123.881V52.272H117.545V7.82401ZM110.921 23.952H122.248V29.088H110.921V23.952Z" fill="white"/>
<path d="M148.405 17.952H155.461V23.088H148.405V17.952ZM162.565 7.82401H168.613V41.088H162.565V7.82401ZM153.685 8.544H159.685V39.744H153.685V8.544ZM138.709 46.416H169.765V51.504H138.709V46.416ZM138.709 37.2H145.093V49.632H138.709V37.2ZM138.565 10.8H143.557V16.512C143.557 24.336 140.677 32.064 133.621 35.376L130.165 30.528C136.213 27.552 138.565 21.792 138.565 16.512V10.8ZM139.861 10.8H144.757V16.512C144.757 21.648 146.869 26.736 152.437 29.424L148.933 34.272C142.357 31.2 139.861 24.096 139.861 16.512V10.8Z" fill="white"/>
<path d="M179.649 30.72H210.897V35.712H179.649V30.72ZM174.945 42H215.169V47.184H174.945V42ZM179.649 11.04H210.513V16.176H186.129V32.112H179.649V11.04ZM184.161 20.832H209.505V25.776H184.161V20.832Z" fill="white"/>
</g>
<defs>
<clipPath id="clip0_2_20">
<rect width="215" height="64" fill="white"/>
</clipPath>
</defs>
</svg>
