<svg width="353" height="64" viewBox="0 0 353 64" fill="none" xmlns="http://www.w3.org/2000/svg">
<path d="M76.736 7.776H83.12V52.368H76.736V7.776ZM69.776 23.808H78.032V28.944H69.776V23.808ZM47.456 36.816H51.104C58.304 36.816 64.016 36.672 70.448 35.568L71.024 40.752C64.448 41.856 58.496 42.096 51.104 42.096H47.456V36.816ZM47.36 11.568H67.376V28.272H53.792V38.4H47.456V23.232H61.088V16.656H47.36V11.568Z" fill="white"/>
<path d="M121.036 7.824H127.42V52.416H121.036V7.824ZM109.084 21.552H122.86V26.688H109.084V21.552ZM92.3802 12.576H98.7162V40.176H92.3802V12.576ZM92.3802 36.672H96.1242C102.46 36.672 109.036 36.24 115.948 34.848L116.62 40.128C109.468 41.568 102.652 41.952 96.1242 41.952H92.3802V36.672Z" fill="white"/>
<path d="M150.744 10.368H156.312V13.584C156.312 23.232 149.448 31.776 137.928 34.032L135.192 28.752C145.224 27.024 150.744 19.968 150.744 13.584V10.368ZM152.04 10.368H157.56V13.584C157.56 20.112 163.032 27.024 173.112 28.752L170.376 34.032C158.856 31.776 152.04 23.376 152.04 13.584V10.368ZM134.28 41.664H174.504V46.848H134.28V41.664Z" fill="white"/>
<path d="M201.477 18.912H210.021V24.048H201.477V18.912ZM195.093 9.984H201.765C201.765 22.224 196.005 30.336 181.557 34.704L179.061 29.712C191.157 26.208 195.093 20.352 195.093 12.72V9.984ZM181.365 9.984H199.221V15.024H181.365V9.984ZM195.861 18.144V22.512L180.021 23.712L179.109 18.72L195.861 18.144ZM209.205 7.824H215.589V33.168H209.205V7.824ZM186.309 35.184H215.589V51.792H186.309V35.184ZM209.301 40.176H192.597V46.752H209.301V40.176Z" fill="white"/>
<path d="M223.553 11.712H248.129V16.8H223.553V11.712ZM222.977 42.24L222.353 37.008C230.033 37.008 240.449 36.912 249.185 35.856L249.617 40.464C240.689 42.048 230.561 42.24 222.977 42.24ZM227.249 15.888H233.441V38.304H227.249V15.888ZM237.761 15.888H243.953V38.304H237.761V15.888ZM253.505 7.824H259.841V52.272H253.505V7.824ZM246.881 23.952H258.209V29.088H246.881V23.952Z" fill="white"/>
<path d="M297.469 7.824H303.853V52.272H297.469V7.824ZM269.053 12.048H275.389V39.648H269.053V12.048ZM269.053 35.904H272.989C279.469 35.904 286.669 35.424 294.013 33.984L294.733 39.264C287.101 40.848 279.757 41.328 272.989 41.328H269.053V35.904Z" fill="white"/>
</svg>
