<svg width="353" height="64" viewBox="0 0 353 64" fill="none" xmlns="http://www.w3.org/2000/svg">
<g clip-path="url(#clip0_2_28)">
<path d="M20.0002 31.8771C19.9076 14.4757 34.358 -0.12294 52.3593 0.000255269C69.4342 0.123451 84.1626 13.6749 84.1935 32.0003C84.1935 50.264 69.3107 64.0927 51.7726 63.9695C34.358 63.8463 19.9076 49.648 20.0002 31.8771ZM81.2601 32.0619C81.2601 30.2139 81.1366 28.3968 80.7661 26.5797C79.2531 19.0647 75.4553 12.9666 69.249 8.40834C65.0188 5.29766 60.4182 3.57292 55.0456 4.28129C48.2835 5.17446 42.2625 10.5335 40.7495 17.1244C39.8541 21.0667 41.8302 24.7933 45.412 26.0253C45.9369 26.2101 46.3383 26.2101 46.8014 25.8097C49.5186 23.5922 52.4828 23.1918 55.6631 24.6701C57.8554 25.6865 59.7389 27.1032 61.3445 28.8896C65.7908 33.7558 67.5508 39.4536 66.5318 45.9213C65.7908 50.6336 63.5059 54.5758 59.9241 57.7481C59.461 58.1485 58.9978 58.5797 59.3992 59.288C59.8315 59.9964 60.449 59.8424 61.0975 59.6576C61.1901 59.6576 61.3136 59.596 61.4062 59.5652C68.0757 57.2553 73.2939 53.1591 76.9991 47.1841C79.8707 42.5335 81.291 37.4824 81.2601 32.0619ZM22.8718 31.9387C22.81 33.1398 22.9335 34.3102 23.0879 35.4805C24.3847 44.5354 28.7693 51.6191 36.5194 56.6393C40.2864 59.0724 44.3313 60.2428 48.8393 59.7192C55.941 58.8568 61.9929 53.467 63.5059 46.5065C64.3087 42.8722 62.209 39.084 58.7817 37.9752C58.2259 37.7904 57.8245 37.852 57.3305 38.2216C54.4589 40.4391 51.4021 40.8087 48.1291 39.1456C45.6898 37.8828 43.5593 36.1889 41.8611 34.033C38.2794 29.5055 36.7355 24.3621 37.5074 18.6028C38.1867 13.6133 40.5025 9.4555 44.3004 6.12922C44.7635 5.72884 45.0414 5.29766 44.7635 4.68168C44.4548 4.0349 43.899 4.0965 43.3432 4.2197C43.1579 4.2505 43.0036 4.31209 42.8183 4.37369C37.9088 6.06763 33.6478 8.77793 30.2205 12.6894C25.3728 18.2024 22.9953 24.6393 22.9026 31.9387H22.8718ZM46.8014 31.9387C46.8014 34.8953 49.1481 37.2361 52.0505 37.2361C54.9221 37.2361 57.3614 34.8029 57.3614 32.0311C57.3614 29.1052 54.9529 26.6721 52.0196 26.7029C49.1172 26.7029 46.8014 29.0436 46.8014 31.9387Z" fill="white"/>
<path d="M114.422 48.3542C110.5 48.3542 106.548 48.3542 102.627 48.3542C101.237 48.3542 100.929 48.0462 100.898 46.7219C100.898 45.7055 100.898 44.6583 100.898 43.642C100.929 42.4408 101.237 42.1636 102.442 42.1636C109.605 42.1636 116.768 42.1636 123.932 42.1636C124.272 42.1636 124.611 42.1636 124.951 42.1636C126.062 42.1328 126.742 41.5784 126.896 40.4697C127.05 39.4533 127.05 38.4062 126.896 37.4206C126.711 36.281 126.093 35.7883 124.951 35.7575C124.611 35.7575 124.272 35.7575 123.932 35.7575C118.775 35.7575 113.619 35.7575 108.463 35.7575C106.703 35.7575 104.973 35.4495 103.522 34.3715C101.67 33.0164 101.021 31.076 100.898 28.9509C100.805 27.2878 100.743 25.5938 100.959 23.8999C101.423 20.4504 103.769 18.2945 107.258 18.0173C108.432 17.9249 109.636 17.8941 110.809 17.8941C117.386 17.8941 123.963 17.8941 130.54 17.8941C130.91 17.8941 131.281 17.8941 131.651 17.9557C132.269 18.0173 132.608 18.3561 132.608 19.0029C132.608 20.358 132.608 21.6824 132.608 23.0375C132.608 23.7767 132.238 24.0847 131.528 24.0847C131.25 24.0847 131.003 24.0847 130.725 24.0847C123.932 24.0847 117.139 24.0847 110.346 24.0847C109.945 24.0847 109.543 24.0847 109.173 24.1771C108.277 24.3927 107.752 24.9779 107.691 25.9018C107.66 26.5794 107.66 27.257 107.691 27.9654C107.691 29.5977 108.308 30.2137 109.945 30.2137C115.132 30.2137 120.288 30.2137 125.476 30.2137C126.402 30.2137 127.328 30.2753 128.224 30.4601C131.651 31.1684 133.627 33.5091 133.689 37.0202C133.689 38.5602 133.689 40.0693 133.689 41.6092C133.658 45.3359 131.342 47.8306 127.606 48.2618C126.773 48.3542 125.939 48.385 125.074 48.385C121.493 48.385 117.942 48.385 114.36 48.385L114.422 48.3542Z" fill="white"/>
<path d="M319.322 48.3542C318.55 48.3542 317.778 48.3234 317.037 48.3542C316.203 48.4158 315.709 48.0462 315.338 47.3378C314.566 45.8595 313.733 44.4427 312.961 42.9644C312.683 42.41 312.312 42.1636 311.664 42.1944C305.458 42.1944 299.252 42.1944 293.045 42.1944C292.459 42.1944 292.119 42.3792 291.841 42.872C291.1 44.3503 290.266 45.7979 289.525 47.2762C289.155 48.0154 288.63 48.385 287.765 48.3542C286.16 48.3234 284.554 48.3542 282.948 48.3542C281.775 48.3542 281.559 47.9538 282.084 46.9682C286.777 38.4062 291.44 29.8441 296.133 21.282C296.38 20.82 296.689 20.3888 296.997 19.9577C297.831 18.7257 298.974 17.9865 300.487 17.9557C301.567 17.9249 302.648 17.9249 303.729 17.9557C305.859 18.0173 307.218 19.2493 308.206 21.0048C309.256 22.9143 310.336 24.8239 311.386 26.7334C315.091 33.4476 318.797 40.1309 322.471 46.845C323.119 48.0154 322.903 48.385 321.545 48.385C320.804 48.385 320.063 48.385 319.322 48.385V48.3542ZM302.308 36.9894C304.501 36.9894 306.693 36.9894 308.885 36.9894C309.472 36.9894 309.595 36.8046 309.287 36.3118C308.947 35.7575 308.638 35.1723 308.329 34.5871C306.569 31.3532 304.809 28.1193 303.049 24.8855C302.895 24.5775 302.741 24.2695 302.308 24.2387C301.876 24.2387 301.722 24.5159 301.567 24.8239C299.529 28.6121 297.522 32.3696 295.485 36.1578C295.083 36.9278 295.114 36.9894 295.948 36.9894C298.047 36.9894 300.178 36.9894 302.277 36.9894H302.308Z" fill="white"/>
<path d="M165.708 48.3542C163.362 48.2618 160.49 48.4774 157.588 48.231C156.569 48.1386 155.55 47.9538 154.562 47.6766C151.937 46.8758 150.363 45.1203 149.992 42.4716C149.467 38.591 149.467 34.7103 149.93 30.8296C150.394 27.0106 152.74 25.0703 156.785 24.6391C157.958 24.5159 159.101 24.4851 160.274 24.4851C164.69 24.4851 169.105 24.4851 173.52 24.4851C174.817 24.4851 176.114 24.6391 177.349 24.9779C180.776 25.871 182.506 28.027 182.691 31.538C182.876 34.8027 182.876 38.0366 182.691 41.3013C182.475 45.1203 180.282 47.461 176.33 48.0462C175.002 48.2618 173.644 48.3542 172.316 48.3542C170.278 48.3542 168.24 48.3542 165.708 48.3542ZM166.326 29.7209C164.103 29.7209 161.88 29.6901 159.657 29.7209C157.433 29.7825 156.445 30.6449 156.198 32.8008C155.92 35.0183 155.982 37.2666 156.137 39.4841C156.322 42.0096 157.279 42.9644 159.626 42.9952C164.072 43.0876 168.487 43.0876 172.934 42.9952C175.126 42.9644 176.176 42.0712 176.361 39.9461C176.608 37.359 176.639 34.7411 176.268 32.154C176.083 30.922 175.28 30.1521 174.045 29.8749C173.489 29.7517 172.903 29.6901 172.316 29.6901C170.309 29.6901 168.302 29.6901 166.295 29.6901L166.326 29.7209Z" fill="white"/>
<path d="M204.274 24.4543C206.744 24.4543 209.245 24.4543 211.715 24.4543C212.919 24.4543 214.124 24.6083 215.328 24.9163C218.693 25.717 220.577 27.9653 220.762 31.4148C221.04 36.589 220.824 41.7632 220.886 46.9374C220.886 48.0154 220.546 48.2926 219.496 48.3234C218.323 48.3234 217.119 48.3234 215.945 48.3234C214.865 48.3234 214.556 48.0154 214.556 46.8758C214.556 42.7796 214.556 38.6833 214.556 34.5563C214.556 33.8479 214.556 33.1396 214.371 32.4312C214.062 31.076 213.414 30.3985 212.055 30.1829C211.376 30.0597 210.696 29.9981 210.017 29.9981C206.281 29.9981 202.514 29.9981 198.778 29.9981C197.944 29.9981 197.08 30.0905 196.277 30.3061C195.165 30.5833 194.517 31.3224 194.27 32.4004C194.115 33.1088 194.023 33.7863 194.023 34.4947C194.023 38.5294 194.023 42.5948 194.023 46.6295C194.023 48.0154 193.807 48.2618 192.417 48.2618C191.275 48.2618 190.132 48.2618 189.021 48.2618C188.002 48.2618 187.662 47.923 187.662 46.9374C187.662 42.1636 187.662 37.4206 187.662 32.6468C187.662 31.846 187.786 31.0144 187.94 30.2137C188.403 27.4726 190.009 25.717 192.664 24.9471C193.992 24.5467 195.35 24.3619 196.74 24.3619C199.272 24.3619 201.804 24.3619 204.336 24.3619L204.274 24.4543Z" fill="white"/>
<path d="M255.036 48.3542C252.195 48.3542 249.323 48.3542 246.483 48.3542C244.939 48.3542 243.364 48.1694 241.851 47.769C238.949 46.999 237.25 45.0895 236.911 42.1636C236.479 38.591 236.509 34.9567 236.849 31.384C237.25 27.1338 239.381 25.1935 243.704 24.6699C244.599 24.5467 245.495 24.4851 246.39 24.4851C252.257 24.4851 258.123 24.4851 263.99 24.4851C265.225 24.4851 265.441 24.6699 265.441 25.9018C265.441 26.795 265.441 27.6882 265.441 28.5813C265.441 29.5669 265.194 29.7825 264.206 29.7825C258.895 29.7825 253.584 29.7825 248.274 29.7825C247.471 29.7825 246.699 29.8441 245.896 29.9673C244.26 30.1829 243.364 30.9836 243.21 32.77C242.963 35.2031 242.932 37.667 243.21 40.1001C243.426 42.0712 244.507 42.9336 246.544 42.9644C248.644 43.026 250.775 42.9644 252.874 42.9952C256.549 42.9952 260.223 42.9952 263.897 42.9952C265.194 42.9952 265.441 43.2416 265.441 44.5043C265.441 45.3359 265.441 46.1983 265.441 47.0298C265.441 48.1078 265.163 48.385 264.083 48.385C261.057 48.385 258.062 48.385 255.036 48.385V48.3542Z" fill="white"/>
<path d="M333 33.078C333 37.667 333 42.2868 333 46.8758C333 48.077 332.753 48.3234 331.58 48.3234C330.283 48.3234 328.986 48.3234 327.689 48.3234C326.547 48.3234 326.269 48.0154 326.269 46.9374C326.269 37.6978 326.269 28.4889 326.269 19.2493C326.269 18.2021 326.547 17.8941 327.627 17.8633C328.986 17.8633 330.314 17.8633 331.672 17.8633C332.753 17.8633 333 18.1713 333 19.2801C333 23.8691 333 28.4889 333 33.078Z" fill="white"/>
<path d="M144.805 36.4042C144.805 39.8537 144.805 43.3032 144.805 46.7218C144.805 48.077 144.527 48.3234 143.168 48.3234C142.149 48.3234 141.1 48.3234 140.081 48.3234C138.691 48.3234 138.444 48.077 138.444 46.6603C138.444 40.6237 138.444 34.5563 138.444 28.5197C138.444 27.5958 138.444 26.6718 138.444 25.7478C138.444 24.7315 138.784 24.4543 139.803 24.4235C140.976 24.4235 142.18 24.4235 143.354 24.4235C144.496 24.4235 144.805 24.7007 144.805 25.871C144.805 29.3513 144.805 32.8624 144.805 36.3426V36.4042Z" fill="white"/>
<path d="M226.104 36.4042C226.104 32.924 226.104 29.4129 226.104 25.9326C226.104 24.7315 226.351 24.4543 227.617 24.4543C228.821 24.4543 230.056 24.4543 231.26 24.4543C232.032 24.4543 232.372 24.8239 232.434 25.5322C232.434 25.8094 232.434 26.1174 232.434 26.3946C232.434 33.078 232.434 39.7305 232.434 46.4139C232.434 46.7218 232.434 47.0298 232.403 47.3686C232.341 47.9846 231.97 48.3234 231.353 48.3234C229.963 48.3234 228.543 48.3542 227.154 48.3234C226.351 48.3234 226.073 47.923 226.073 46.9682C226.073 43.4572 226.073 39.9153 226.073 36.4042H226.104Z" fill="white"/>
<path d="M141.563 21.8364C140.914 21.8364 140.235 21.8364 139.587 21.8364C138.845 21.8364 138.444 21.4668 138.444 20.7276C138.444 19.4033 138.444 18.1097 138.444 16.7854C138.444 16.0462 138.845 15.6458 139.587 15.6458C140.945 15.6458 142.335 15.6458 143.693 15.6458C144.434 15.6458 144.805 16.077 144.805 16.8162C144.805 18.1097 144.805 19.4033 144.805 20.666C144.805 21.5284 144.434 21.8056 143.57 21.8364C142.921 21.8364 142.242 21.8364 141.594 21.8364H141.563Z" fill="white"/>
<path d="M229.223 21.8364C228.512 21.8364 227.802 21.8364 227.092 21.8364C226.475 21.8364 226.104 21.4668 226.104 20.8508C226.104 19.4649 226.104 18.0789 226.104 16.6622C226.104 16.0154 226.505 15.6766 227.092 15.6766C228.543 15.6458 229.995 15.6766 231.446 15.6766C232.032 15.6766 232.372 16.0462 232.403 16.6314C232.496 18.0481 232.496 19.4649 232.403 20.8816C232.372 21.5284 231.971 21.8672 231.291 21.8364C230.612 21.8364 229.933 21.8364 229.223 21.8364Z" fill="white"/>
</g>
<defs>
<clipPath id="clip0_2_28">
<rect width="313" height="64" fill="white" transform="translate(20)"/>
</clipPath>
</defs>
</svg>
