<svg width="353" height="64" viewBox="0 0 353 64" fill="none" xmlns="http://www.w3.org/2000/svg">
<path d="M69.6479 37.056H73.3919C80.8799 37.056 86.5919 36.96 93.216 35.904L93.792 40.992C87.0719 42.048 81.024 42.24 73.3919 42.24H69.6479V37.056ZM69.6479 11.52H90.528V16.704H76.0799V38.736H69.6479V11.52ZM74.5439 23.856H89.9039V28.848H74.5439V23.856ZM96.336 7.82401H102.768V52.272H96.336V7.82401ZM101.328 24.672H109.2V29.952H101.328V24.672Z" fill="white"/>
<path d="M142.604 7.872H149.036V32.976H142.604V7.872ZM119.468 34.992H149.036V51.792H119.468V34.992ZM142.748 39.984H125.708V46.752H142.748V39.984ZM124.844 9.888C131.756 9.888 136.892 14.304 136.892 20.544C136.892 26.736 131.756 31.2 124.844 31.2C117.932 31.2 112.748 26.736 112.748 20.544C112.748 14.304 117.932 9.888 124.844 9.888ZM124.844 15.168C121.484 15.168 118.988 17.136 118.988 20.544C118.988 23.904 121.484 25.872 124.844 25.872C128.204 25.872 130.652 23.904 130.652 20.544C130.652 17.136 128.204 15.168 124.844 15.168Z" fill="white"/>
<path d="M157.24 11.712H181.816V16.8H157.24V11.712ZM156.664 42.24L156.04 37.008C163.72 37.008 174.136 36.912 182.872 35.856L183.304 40.464C174.376 42.048 164.248 42.24 156.664 42.24ZM160.936 15.888H167.128V38.304H160.936V15.888ZM171.448 15.888H177.64V38.304H171.448V15.888ZM187.192 7.82401H193.528V52.272H187.192V7.82401ZM180.568 23.952H191.896V29.088H180.568V23.952Z" fill="white"/>
<path d="M218.053 17.952H225.109V23.088H218.053V17.952ZM232.213 7.82401H238.261V41.088H232.213V7.82401ZM223.333 8.544H229.333V39.744H223.333V8.544ZM208.357 46.416H239.413V51.504H208.357V46.416ZM208.357 37.2H214.741V49.632H208.357V37.2ZM208.213 10.8H213.205V16.512C213.205 24.336 210.325 32.064 203.269 35.376L199.813 30.528C205.861 27.552 208.213 21.792 208.213 16.512V10.8ZM209.509 10.8H214.405V16.512C214.405 21.648 216.517 26.736 222.085 29.424L218.581 34.272C212.005 31.2 209.509 24.096 209.509 16.512V10.8Z" fill="white"/>
<path d="M249.297 30.72H280.545V35.712H249.297V30.72ZM244.593 42H284.817V47.184H244.593V42ZM249.297 11.04H280.161V16.176H255.777V32.112H249.297V11.04ZM253.809 20.832H279.153V25.776H253.809V20.832Z" fill="white"/>
</svg>
